<svg width="70" height="70" viewBox="0 0 70 70" fill="none" xmlns="http://www.w3.org/2000/svg">
    <path d="M35 67.5C52.9493 67.5 67.5 52.9493 67.5 35C67.5 17.0507 52.9493 2.5 35 2.5C17.0507 2.5 2.5 17.0507 2.5 35C2.5 52.9493 17.0507 67.5 35 67.5Z" fill="#DBC1FF"/>
    <path d="M35 22V48M22 35H48M67.5 35C67.5 52.9493 52.9493 67.5 35 67.5C17.0507 67.5 2.5 52.9493 2.5 35C2.5 17.0507 17.0507 2.5 35 2.5C52.9493 2.5 67.5 17.0507 67.5 35Z" stroke="#5E3F89" stroke-width="4" stroke-linecap="round" stroke-linejoin="round"/>
</svg>
