<svg width="70" height="70" viewBox="0 0 70 70" fill="none" xmlns="http://www.w3.org/2000/svg">
<rect x="2" y="2" width="66" height="66" rx="15" fill="#5E3F89"/>
<rect x="2" y="2" width="66" height="66" rx="15" stroke="white" stroke-width="4"/>
<path d="M58.3337 61.25V55.4167C58.3337 52.3225 57.1045 49.355 54.9166 47.1671C52.7286 44.9792 49.7612 43.75 46.667 43.75H23.3337C20.2395 43.75 17.272 44.9792 15.0841 47.1671C12.8962 49.355 11.667 52.3225 11.667 55.4167V61.25M46.667 20.4167C46.667 26.86 41.4436 32.0833 35.0003 32.0833C28.557 32.0833 23.3337 26.86 23.3337 20.4167C23.3337 13.9733 28.557 8.75 35.0003 8.75C41.4436 8.75 46.667 13.9733 46.667 20.4167Z" stroke="white" stroke-width="4" stroke-linecap="round" stroke-linejoin="round"/>
</svg>
